<svg xmlns="http://www.w3.org/2000/svg" viewBox="4.50 929.50 21.00 21.00" xmlns:c2pa="http://c2pa.org/manifest"><metadata><c2pa:manifest>AAAWgmp1bWIAAAAeanVtZGMycGEAEQAQgAAAqgA4m3EDYzJwYQAAABZcanVtYgAAAEdqdW1kYzJtYQARABCAAACqADibcQN1cm46YzJwYToxNmYxMzYxNy1jN2VlLTQ4NDMtOTRiOS0zZjgwZjg4YjlmZjEAAAADl2p1bWIAAAApanVtZGMyYXMAEQAQgAAAqgA4m3EDYzJwYS5hc3NlcnRpb25zAAAAALxqdW1iAAAARGp1bWRjYm9yABEAEIAAAKoAOJtxE2MycGEuaW5ncmVkaWVudC52MwAAAAAYYzJzaAO0Havy1VxNIKQw9cUAzSIAAABwY2JvcqNpZGM6Zm9ybWF0bWltYWdlL3N2Zyt4bWxqaW5zdGFuY2VJRHgseG1wOmlpZDpiNmRlMzVhYy1hNDRmLTQzMDItODM2MC03Mjc2NTgzZDEwMjFscmVsYXRpb25zaGlwaHBhcmVudE9mAAAB4mp1bWIAAABBanVtZGNib3IAEQAQgAAAqgA4m3ETYzJwYS5hY3Rpb25zLnYyAAAAABhjMnNo9AgDkWPJtZzubOSRmKkGCAAAAZljYm9yomdhY3Rpb25zgqJmYWN0aW9ua2MycGEub3BlbmVkanBhcmFtZXRlcnOha2luZ3JlZGllbnRzgaJjdXJseC1zZWxmI2p1bWJmPWMycGEuYXNzZXJ0aW9ucy9jMnBhLmluZ3JlZGllbnQudjNkaGFzaFgg1Rw+ks2s+k2VSEzD0s5WK8zqh73AtotKYCR/OecHGiCkZmFjdGlvbngdY29tLmFudGhyb3BpYy5jbGF1ZGUucHJvdmlkZWRqcGFyYW1ldGVyc6F4H2NvbS5hbnRocm9waWMub3JpZ2luLWNvbmZpZGVuY2VndW5rbm93bmtkZXNjcmlwdGlvbnhmQ2xhdWRlIHByb3ZpZGVkIHRoaXMgZmlsZSBhdCB0aGUgcmVxdWVzdCBvZiBhIHVzZXIgYW5kIG1heSBoYXZlIGNyZWF0ZWQgb3IgbW9kaWZpZWQgdGhlIGZpbGUgY29udGVudHMubXNvZnR3YXJlQWdlbnShZG5hbWVmQ2xhdWRlcmFsbEFjdGlvbnNJbmNsdWRlZPUAAADIanVtYgAAAEBqdW1kY2JvcgARABCAAACqADibcRNjMnBhLmhhc2guZGF0YQAAAAAYYzJzaA8HeuE4EY8Y9gXxrCUb1n0AAACAY2JvcqVjYWxnZnNoYTI1NmNwYWRNAAAAAAAAAAAAAAAAAGRoYXNoWCCuppMkkbmfAXdgdSepOJaO9pD9pYKnrF41+oo7xNQQJmRuYW1lbmp1bWJmIG1hbmlmZXN0amV4Y2x1c2lvbnOBomVzdGFydBiJZmxlbmd0aBkeBAAAAj5qdW1iAAAAJ2p1bWRjMmNsABEAEIAAAKoAOJtxA2MycGEuY2xhaW0udjIAAAACD2Nib3KlY2FsZ2ZzaGEyNTZpc2lnbmF0dXJleE1zZWxmI2p1bWJmPS9jMnBhL3VybjpjMnBhOjE2ZjEzNjE3LWM3ZWUtNDg0My05NGI5LTNmODBmODhiOWZmMS9jMnBhLnNpZ25hdHVyZWppbnN0YW5jZUlEeCx4bXA6aWlkOjEyOWE4YTZjLTZhNjktNDkzNi05N2NhLTkxMzhjYzAzMjU5NXJjcmVhdGVkX2Fzc2VydGlvbnODomN1cmx4LXNlbGYjanVtYmY9YzJwYS5hc3NlcnRpb25zL2MycGEuaW5ncmVkaWVudC52M2RoYXNoWCDVHD6Szaz6TZVITMPSzlYrzOqHvcC2i0pgJH855wcaIKJjdXJseCpzZWxmI2p1bWJmPWMycGEuYXNzZXJ0aW9ucy9jMnBhLmFjdGlvbnMudjJkaGFzaFggK+8dF6k6B5d37SBt5VMY6z72sWTycAY9Y6cYzlwMpSSiY3VybHgpc2VsZiNqdW1iZj1jMnBhLmFzc2VydGlvbnMvYzJwYS5oYXNoLmRhdGFkaGFzaFgg8PFwhxGIzYz+kIr7MxZ3M4JtXd7/bhptSE2yPW0h3B50Y2xhaW1fZ2VuZXJhdG9yX2luZm+jZG5hbWVvQW50aHJvcGljIEZpbGVzZ3ZlcnNpb25lMS4wLjBrc3BlY1ZlcnNpb25lMi40LjAAABA4anVtYgAAAChqdW1kYzJjcwARABCAAACqADibcQNjMnBhLnNpZ25hdHVyZQAAABAIY2JvctKEWQISogEmGCFZAgowggIGMIIBjaADAgECAhRA5aAK7sI50L64g/oGQgU9Z1UTADAKBggqhkjOPQQDAzBJMRcwFQYDVQQKEw5BbnRocm9waWMsIFBCQzEuMCwGA1UEAxMlQW50aHJvcGljIENvbnRlbnQgQ3JlZGVudGlhbHMgUm9vdCBDQTAeFw0yNjA4MDcxODQzNTZaFw0yODA4MDYxOTQzNTZaMEQxFzAVBgNVBAoTDkFudGhyb3BpYywgUEJDMSkwJwYDVQQDEyBBbnRocm9waWMgQ2xhdWRlIENvbnRlbnQgU2lnbmluZzBZMBMGByqGSM49AgEGCCqGSM49AwEHA0IABJh6CmvLUBgFFNU0vUKlOVtE6djd17L5SuwX0LemFisBM3dkd/3cyjxFA3Qo5S46fX0/ihY0VZ7mfb9KF703t5OjWDBWMA4GA1UdDwEB/wQEAwIHgDAVBgNVHSUEDjAMBgorBgEEAYPoXgIBMAwGA1UdEwEB/wQCMAAwHwYDVR0jBBgwFoAUzlHiBIFOZFsj+OPEz5o+nMHXXMIwCgYIKoZIzj0EAwMDZwAwZAIwMXMdFJ4BetLLVY7ORuE9noqbbAZOZn/aArXyTwFAZfKrPzxF2vPoJNf1+UCdg1XGAjBwX1zd9WGqYkqmL5SFqw1QySjr1zJfpJM9+1rdDwSPLMOPOjKuiXjoU/pUUeG9RwmhY3BhZFkNngAAAAAAAAAAAAAAAAAAAAAAAAAAAAAAAAAAAAAAAAAAAAAAAAAAAAAAAAAAAAAAAAAAAAAAAAAAAAAAAAAAAAAAAAAAAAAAAAAAAAAAAAAAAAAAAAAAAAAAAAAAAAAAAAAAAAAAAAAAAAAAAAAAAAAAAAAAAAAAAAAAAAAAAAAAAAAAAAAAAAAAAAAAAAAAAAAAAAAAAAAAAAAAAAAAAAAAAAAAAAAAAAAAAAAAAAAAAAAAAAAAAAAAAAAAAAAAAAAAAAAAAAAAAAAAAAAAAAAAAAAAAAAAAAAAAAAAAAAAAAAAAAAAAAAAAAAAAAAAAAAAAAAAAAAAAAAAAAAAAAAAAAAAAAAAAAAAAAAAAAAAAAAAAAAAAAAAAAAAAAAAAAAAAAAAAAAAAAAAAAAAAAAAAAAAAAAAAAAAAAAAAAAAAAAAAAAAAAAAAAAAAAAAAAAAAAAAAAAAAAAAAAAAAAAAAAAAAAAAAAAAAAAAAAAAAAAAAAAAAAAAAAAAAAAAAAAAAAAAAAAAAAAAAAAAAAAAAAAAAAAAAAAAAAAAAAAAAAAAAAAAAAAAAAAAAAAAAAAAAAAAAAAAAAAAAAAAAAAAAAAAAAAAAAAAAAAAAAAAAAAAAAAAAAAAAAAAAAAAAAAAAAAAAAAAAAAAAAAAAAAAAAAAAAAAAAAAAAAAAAAAAAAAAAAAAAAAAAAAAAAAAAAAAAAAAAAAAAAAAAAAAAAAAAAAAAAAAAAAAAAAAAAAAAAAAAAAAAAAAAAAAAAAAAAAAAAAAAAAAAAAAAAAAAAAAAAAAAAAAAAAAAAAAAAAAAAAAAAAAAAAAAAAAAAAAAAAAAAAAAAAAAAAAAAAAAAAAAAAAAAAAAAAAAAAAAAAAAAAAAAAAAAAAAAAAAAAAAAAAAAAAAAAAAAAAAAAAAAAAAAAAAAAAAAAAAAAAAAAAAAAAAAAAAAAAAAAAAAAAAAAAAAAAAAAAAAAAAAAAAAAAAAAAAAAAAAAAAAAAAAAAAAAAAAAAAAAAAAAAAAAAAAAAAAAAAAAAAAAAAAAAAAAAAAAAAAAAAAAAAAAAAAAAAAAAAAAAAAAAAAAAAAAAAAAAAAAAAAAAAAAAAAAAAAAAAAAAAAAAAAAAAAAAAAAAAAAAAAAAAAAAAAAAAAAAAAAAAAAAAAAAAAAAAAAAAAAAAAAAAAAAAAAAAAAAAAAAAAAAAAAAAAAAAAAAAAAAAAAAAAAAAAAAAAAAAAAAAAAAAAAAAAAAAAAAAAAAAAAAAAAAAAAAAAAAAAAAAAAAAAAAAAAAAAAAAAAAAAAAAAAAAAAAAAAAAAAAAAAAAAAAAAAAAAAAAAAAAAAAAAAAAAAAAAAAAAAAAAAAAAAAAAAAAAAAAAAAAAAAAAAAAAAAAAAAAAAAAAAAAAAAAAAAAAAAAAAAAAAAAAAAAAAAAAAAAAAAAAAAAAAAAAAAAAAAAAAAAAAAAAAAAAAAAAAAAAAAAAAAAAAAAAAAAAAAAAAAAAAAAAAAAAAAAAAAAAAAAAAAAAAAAAAAAAAAAAAAAAAAAAAAAAAAAAAAAAAAAAAAAAAAAAAAAAAAAAAAAAAAAAAAAAAAAAAAAAAAAAAAAAAAAAAAAAAAAAAAAAAAAAAAAAAAAAAAAAAAAAAAAAAAAAAAAAAAAAAAAAAAAAAAAAAAAAAAAAAAAAAAAAAAAAAAAAAAAAAAAAAAAAAAAAAAAAAAAAAAAAAAAAAAAAAAAAAAAAAAAAAAAAAAAAAAAAAAAAAAAAAAAAAAAAAAAAAAAAAAAAAAAAAAAAAAAAAAAAAAAAAAAAAAAAAAAAAAAAAAAAAAAAAAAAAAAAAAAAAAAAAAAAAAAAAAAAAAAAAAAAAAAAAAAAAAAAAAAAAAAAAAAAAAAAAAAAAAAAAAAAAAAAAAAAAAAAAAAAAAAAAAAAAAAAAAAAAAAAAAAAAAAAAAAAAAAAAAAAAAAAAAAAAAAAAAAAAAAAAAAAAAAAAAAAAAAAAAAAAAAAAAAAAAAAAAAAAAAAAAAAAAAAAAAAAAAAAAAAAAAAAAAAAAAAAAAAAAAAAAAAAAAAAAAAAAAAAAAAAAAAAAAAAAAAAAAAAAAAAAAAAAAAAAAAAAAAAAAAAAAAAAAAAAAAAAAAAAAAAAAAAAAAAAAAAAAAAAAAAAAAAAAAAAAAAAAAAAAAAAAAAAAAAAAAAAAAAAAAAAAAAAAAAAAAAAAAAAAAAAAAAAAAAAAAAAAAAAAAAAAAAAAAAAAAAAAAAAAAAAAAAAAAAAAAAAAAAAAAAAAAAAAAAAAAAAAAAAAAAAAAAAAAAAAAAAAAAAAAAAAAAAAAAAAAAAAAAAAAAAAAAAAAAAAAAAAAAAAAAAAAAAAAAAAAAAAAAAAAAAAAAAAAAAAAAAAAAAAAAAAAAAAAAAAAAAAAAAAAAAAAAAAAAAAAAAAAAAAAAAAAAAAAAAAAAAAAAAAAAAAAAAAAAAAAAAAAAAAAAAAAAAAAAAAAAAAAAAAAAAAAAAAAAAAAAAAAAAAAAAAAAAAAAAAAAAAAAAAAAAAAAAAAAAAAAAAAAAAAAAAAAAAAAAAAAAAAAAAAAAAAAAAAAAAAAAAAAAAAAAAAAAAAAAAAAAAAAAAAAAAAAAAAAAAAAAAAAAAAAAAAAAAAAAAAAAAAAAAAAAAAAAAAAAAAAAAAAAAAAAAAAAAAAAAAAAAAAAAAAAAAAAAAAAAAAAAAAAAAAAAAAAAAAAAAAAAAAAAAAAAAAAAAAAAAAAAAAAAAAAAAAAAAAAAAAAAAAAAAAAAAAAAAAAAAAAAAAAAAAAAAAAAAAAAAAAAAAAAAAAAAAAAAAAAAAAAAAAAAAAAAAAAAAAAAAAAAAAAAAAAAAAAAAAAAAAAAAAAAAAAAAAAAAAAAAAAAAAAAAAAAAAAAAAAAAAAAAAAAAAAAAAAAAAAAAAAAAAAAAAAAAAAAAAAAAAAAAAAAAAAAAAAAAAAAAAAAAAAAAAAAAAAAAAAAAAAAAAAAAAAAAAAAAAAAAAAAAAAAAAAAAAAAAAAAAAAAAAAAAAAAAAAAAAAAAAAAAAAAAAAAAAAAAAAAAAAAAAAAAAAAAAAAAAAAAAAAAAAAAAAAAAAAAAAAAAAAAAAAAAAAAAAAAAAAAAAAAAAAAAAAAAAAAAAAAAAAAAAAAAAAAAAAAAAAAAAAAAAAAAAAAAAAAAAAAAAAAAAAAAAAAAAAAAAAAAAAAAAAAAAAAAAAAAAAAAAAAAAAAAAAAAAAAAAAAAAAAAAAAAAAAAAAAAAAAAAAAAAAAAAAAAAAAAAAAAAAAAAAAAAAAAAAAAAAAAAAAAAAAAAAAAAAAAAAAAAAAAAAAAAAAAAAAAAAAAAAAAAAAAAAAAAAAAAAAAAAAAAAAAAAAAAAAAAAAAAAAAAAAAAAAAAAAAAAAAAAAAAAAAAAAAAAAAAAAAAAAAAAAAAAAAAAAAAAAAAAAAAAAAAAAAAAAAAAAAAAAAAAAAAAAAAAAAAAAAAAAAAAAAAAAAAAAAAAAAAAAAAAAAAAAAAAAAAAAAAAAAAAAAAAAAAAAAAAAAAAAAAAAAAAAAAAAAAAAAAAAAAAAAAAAAAAAAAAAAAAAAAAAAAAAAAAAAAAAAAAAAAAAAAAAAAAAAAAAAAAAAAAAAAAAAAAAAAAAAAAAAAAAAAAAAAAAAAAAAAAAAAAAAAAAAAAAAAAAAAAAAAAAAAAAAAAAAAAAAAAAAAAAAAAAAAAAAAAAAAAAAAAAAAAAAAAAAAAAAAAAAAAAAAAAAAAAAAAAAAAAAAAAAAAAAAAAAAAAAAAAAAAAAAAAAAAAAAAAAAAAAAAAAAAAAAAAAAAAAAAAAAAAAAAAAAAAAAAAAAAAAAAAAAAAAAAAAAAAAAAAAAAAAAAAAAAAAAAAAAAAAAAAAAAAAAAAAAAAAAAAAAAAAAAAAAAAAAAAAAAAAAAAAAAAAAAAAAAAAAAAAAAAAAAAAAAAAAAAAAAAAAAAAAAAAAAAAAAAAAAAAAAAAAAAAAAAAAAAAAAAAAAAAAAAAAAAAAAAAAAAAAAAAAAAAAAAAAAAAAAAAAAAAAAAAAAAAAAAAAAAAAAAAAAAAAAAAAAAAAAAAAAAAAAAAAAAAAAAAAAAAAAAAAAAAAAAAAAAAAAAAAAAAAAAAAAAAAAAAAAAAAAAAAAAAAAAAAAAAAAAAAAAAAAAAAAAAAAAAAAAAAAAAAAAAAAAAAAAAAAAAAAAAAAAAAAAAAAAAAAAAAAAAAAAAAAAAAAAAAAAAAAAAAAAAAAAAAAAAAAAAAAAAAAAAAAAAAAAAAAAAAAAAAAAAAAAAAAAAAAAAAAAAAAAAAAAAAAAAAAAAAAAAAAAAAAAAAAAAAAAAAAAAAAAAAAAAAAAAAAAAAAAAAAAAAAAAAAAAAAAAAAAAAAAAAAAAAAAAAAAAAAAAAAAAAAAAAAAAAAAAAAAAAAAAAAAAAAAAAAAAAAAAAAAAAAAAAAAAAAAAAAAAAAAAAAAAAAAAAAAAAAAAAAAAAAAAAAAAAAAAAAAAAAAAAAAAAAAAAAAAAAAAAAAAAAAAAAAAAAAAAAAAAAAAAAAAAAAAAAAAAAAAAAAAAAAAAAAAAAAAAAAAAAAAAAAAAAAAAAAAAAAAAAAAAAAAAAAAAAAAAAAAAAAAAAAAAAAAPZYQIR7hJvsPVATUU2JUqa5UkZ0ChXgA4FAqAc0oVgXzagKUrQ477laSWjM31yXsFIP/8nag5TEzpz6d3HMeGU+ezc=</c2pa:manifest></metadata><path fill="#DAD9FB" fill-rule="evenodd" d="m6.897 930.002 9.02-.002c.724 0 .987.075 1.252.217.264.142.472.349.614.614s.217.528.217 1.252v8.834c0 .724-.075.987-.217 1.252s-.35.472-.614.614c-.265.142-.528.217-1.252.217H7.083c-.724 0-.987-.075-1.252-.217a1.48 1.48 0 0 1-.614-.614c-.129-.241-.203-.48-.215-1.066L5 932.083c0-.724.075-.987.217-1.252s.35-.472.614-.614c.241-.129.48-.203 1.066-.215" clip-rule="evenodd"></path><path fill="#7253E2" fill-rule="evenodd" d="m13.897 937.002 9.02-.002c.724 0 .987.075 1.252.217.264.142.472.349.614.614s.217.528.217 1.252v8.834c0 .724-.075.987-.217 1.252s-.35.472-.614.614c-.265.142-.528.217-1.252.217h-8.834c-.724 0-.987-.075-1.252-.217a1.5 1.5 0 0 1-.614-.614c-.129-.241-.203-.48-.215-1.066l-.002-9.02c0-.724.075-.987.217-1.252s.35-.472.614-.614c.241-.129.48-.203 1.066-.215" clip-rule="evenodd"></path><path fill="url(#i)" d="M9.243 931.9a.365.365 0 0 1 .68 0l.43 1.118c.11.284.144.366.191.433a.7.7 0 0 0 .172.171c.066.047.148.082.433.191l1.117.43a.364.364 0 0 1 0 .681l-1.117.429c-.285.11-.367.144-.433.191a.8.8 0 0 0-.172.172c-.047.066-.081.148-.19.433l-.43 1.117a.365.365 0 0 1-.68 0l-.43-1.117c-.11-.285-.145-.367-.192-.433a.8.8 0 0 0-.171-.172c-.067-.047-.149-.081-.433-.191l-1.118-.429a.366.366 0 0 1 0-.681l1.118-.43c.284-.109.366-.144.433-.191a.7.7 0 0 0 .171-.171c.047-.067.082-.149.191-.433z"></path><g fill="#fff"><path d="m17.147 945.285.119-.602q-.444-.01-.444-.353 0-.16.11-.261.112-.102.327-.103h.151l.184-.935h-.335a.48.48 0 0 1-.324-.103.34.34 0 0 1-.113-.257q0-.161.11-.258.112-.099.327-.099h.48l.15-.737a1.7 1.7 0 0 1 .078-.292.4.4 0 0 1 .119-.161.33.33 0 0 1 .2-.055q.17 0 .26.09t.09.232q0 .031-.055.325l-.119.598h.704l.154-.737q.033-.167.062-.27a.4.4 0 0 1 .102-.173q.078-.072.222-.071.168 0 .258.087a.3.3 0 0 1 .093.234 1 1 0 0 1-.01.132 1 1 0 0 1-.035.2l-.12.604q.46.009.46.357a.33.33 0 0 1-.109.257q-.109.096-.324.097h-.164l-.193.935h.357q.215 0 .324.103t.11.261q0 .157-.11.257-.106.096-.324.096h-.496l-.15.74a3 3 0 0 1-.065.273.34.34 0 0 1-.103.167q-.076.074-.222.074a.35.35 0 0 1-.254-.09.3.3 0 0 1-.093-.234q0-.132.045-.328l.119-.602h-.71l-.152.74a1.6 1.6 0 0 1-.122.395q-.06.12-.267.119a.36.36 0 0 1-.257-.09.3.3 0 0 1-.093-.234q0-.074.016-.164zm1.88-2.254h-.71l-.19.935h.718zM22.484 943.502a1.4 1.4 0 0 1-.283-.229 1 1 0 0 1-.18-.289 1.6 1.6 0 0 1-.1-.402 5 5 0 0 1-.029-.55q0-.305-.013-.466a.7.7 0 0 0-.051-.238.2.2 0 0 0-.11-.1.8.8 0 0 0-.209-.045.3.3 0 0 1-.202-.115.43.43 0 0 1-.08-.274q0-.382.466-.382.299 0 .524.122a.86.86 0 0 1 .357.344 1 1 0 0 1 .135.508q.02 1.068.045 1.174a.75.75 0 0 0 .15.324q.1.11.242.196a.8.8 0 0 1 .209.168q.07.083.07.254 0 .24-.183.353-.225.139-.328.245a.6.6 0 0 0-.141.26 2.4 2.4 0 0 0-.048.466l-.016.782q-.01.444-.287.71-.273.271-.73.271a.54.54 0 0 1-.347-.1q-.119-.1-.119-.29 0-.106.039-.196a.35.35 0 0 1 .1-.135.3.3 0 0 1 .144-.058 1 1 0 0 0 .216-.048.2.2 0 0 0 .106-.109.7.7 0 0 0 .048-.238q.013-.154.013-.453.006-.444.051-.695t.17-.431q.127-.18.37-.334M14.692 943.502q.228.141.357.318.129.174.18.447.051.27.052.694 0 .319.012.47a.6.6 0 0 0 .058.228.2.2 0 0 0 .106.103q.06.025.21.048a.3.3 0 0 1 .202.119q.08.103.08.27 0 .39-.472.389-.293 0-.524-.122a.86.86 0 0 1-.354-.347 1.04 1.04 0 0 1-.129-.511 66 66 0 0 0-.019-.785 3 3 0 0 0-.029-.382.7.7 0 0 0-.145-.325 1 1 0 0 0-.247-.203 1 1 0 0 1-.216-.17q-.064-.078-.064-.241 0-.239.187-.357.23-.145.328-.245a.55.55 0 0 0 .138-.26q.042-.16.048-.347.006-.19.02-.907.009-.444.279-.707.273-.267.727-.267.472 0 .472.382a.43.43 0 0 1-.08.274.3.3 0 0 1-.203.115.6.6 0 0 0-.26.077q-.075.052-.097.2a5 5 0 0 0-.028.572 5 5 0 0 1-.052.682 1.1 1.1 0 0 1-.17.45 1.2 1.2 0 0 1-.367.338"></path></g></svg>